<?xml version="1.0" encoding="UTF-8"?>
<svg width="16" height="16" version="1.1" viewBox="0 0 16 16" xml:space="preserve" xmlns="http://www.w3.org/2000/svg"><title>© 2024 NinStar</title><g transform="matrix(.76243 0 0 .76243 -36.997 -12.812)" stroke-width="1.3722"><g fill="#ffaa5f"><path d="m64.626 29.789a4 4 0 0 0-0.58919 0.05892l0.24336 0.40731a0.85223 0.85223 0 0 1-0.12552 1.0401l-1.1323 1.1348a0.85223 0.85223 0 0 1-1.0426 0.12552l-0.90428-0.54308a4 4 0 0 0-0.45086 1.7778 4 4 0 0 0 4.0014 3.9988 4 4 0 0 0 3.9988-3.9988 4 4 0 0 0-3.9988-4.0014z"/><path d="m52.56 26.928-2.1467 2.8614h1.9981a5 5 0 0 0 5.0004 5.0004h2.0007v-1.0349h-1.1989a0.85223 0.85223 0 0 1-0.82743-0.64555l-0.08197-0.33302a3 3 0 0 1-1.1374-0.28179l-0.10759 0.06404a0.85223 0.85223 0 0 1-1.0426-0.12808l-1.1323-1.1348a0.85223 0.85223 0 0 1-0.12552-1.0401l0.61993-1.0375-0.27154-0.0666-0.79669-0.19981h0.10247a0.85223 0.85223 0 0 1-0.85305-0.85305z"/><path d="m58.573 19.839v0.99907h1.2501a0.85223 0.85223 0 0 1 0.82999 0.64555l0.09222 0.37913a3 3 0 0 1 1.0708 0.27154l0.16395-0.09735a0.85223 0.85223 0 0 1 1.0401 0.12552l1.1323 1.1348a0.85223 0.85223 0 0 1 0.12808 1.0401l-0.62506 1.0375 0.8761 0.22031 0.19469 0.04611h-0.10247a0.85223 0.85223 0 0 1 0.85305 0.85305v1.1425l2.098-2.7974h-2.0007a5 5 0 0 0-5.0004-5.0004z"/><path d="m53.413 16.804a4 4 0 0 0-4.0014 3.9988 4 4 0 0 0 4.0014 4.0014 4 4 0 0 0 0.59432-0.04867l-0.25105-0.41756a0.85223 0.85223 0 0 1 0.12808-1.0401l1.1323-1.1348a0.85223 0.85223 0 0 1 1.0426-0.12552l0.91197 0.55077a4 4 0 0 0 0.44061-1.7855 4 4 0 0 0-3.9988-3.9988z"/></g><path d="m56.36 29.717-0.04288 0.07236h0.09649z" fill="#ffca5f"/><path d="m61.572 24.839 0.06968 0.0938 0.05896-0.0938z" fill="#ffca5f"/></g><g transform="matrix(1.2994 0 0 1.2994 -2.3953 -2.3953)" stroke="#000" stroke-linejoin="round"><path d="m7.5269 4.711-0.26492 1.0609c-0.11093 0.035667-0.21924 0.079315-0.32358 0.13123l-0.93317-0.56071-0.66367 0.66441 0.561 0.93697c-0.052568 0.10384-0.097226 0.21169-0.13383 0.32211l-0.52892 0.13215-0.528 0.13215h-9.21e-4v0.93972h9.21e-4l0.52892 0.13215 0.52892 0.13307c0.036607 0.11042 0.081268 0.21735 0.13383 0.32119l-0.561 0.93697 0.66367 0.66533 0.93317-0.56163c0.10434 0.05191 0.21265 0.09556 0.32358 0.13123l0.26492 1.0609h0.946l0.26308-1.059c0.11048-0.0366 0.2188-0.08144 0.32267-0.13398l0.93592 0.56163 0.66367-0.66441-0.561-0.93513c0.05002-0.10072 0.09325-0.20426 0.12833-0.3111 0.0013-0.00366 0.0025-0.00733 0.0037-0.011014l1.0578-0.26613h9.87e-4v-0.93972h-9.87e-4l-0.17511-0.04405-0.88183-0.22025c-0.01165-0.035075-0.0249-0.069996-0.03943-0.1037-5.17e-4 -0.00127-0.0013-0.00244-0.0018-0.00366-0.02773-0.073513-0.05763-0.14617-0.0926-0.21657l0.56099-0.93514-0.66367-0.66441-0.93592 0.56163c-0.10386-0.052548-0.21219-0.097382-0.32267-0.13398l-0.26308-1.059h-0.93867zm0.46933 2.3319a0.956 0.95707 0 0 1 0.95608 0.95716 0.956 0.95707 0 0 1-0.95608 0.95716 0.956 0.95707 0 0 1-0.95608-0.95716 0.956 0.95707 0 0 1 0.95608-0.95716z" color="#000000" fill="#e0e0e0" stroke="none" style="-inkscape-stroke:none;paint-order:markers stroke fill"/></g></svg>
